<?xml version="1.0" encoding="UTF-8"?>
<svg xmlns="http://www.w3.org/2000/svg" version="1.1" viewBox="0 0 1920 1080">
  <defs>
    <style>
      .cls-1, .cls-2 {
        fill: #002a29;
      }

      .cls-2, .cls-3 {
        opacity: .1;
      }

      .cls-4 {
        fill: #fff;
      }

      .cls-5 {
        display: none;
      }
    </style>
  </defs>
  <!-- Generator: Adobe Illustrator 28.6.0, SVG Export Plug-In . SVG Version: 1.2.0 Build 709)  -->
  <g>
    <g id="LOCKUP">
      <g id="LOGO">
        <g>
          <g>
            <path class="cls-4" d="M803.63,328.1h53.07v55.97h-53.07v-55.97Z"/>
            <path class="cls-4" d="M908.23,542.27c0-73,47.68-124.62,115.35-124.62s115.38,51.62,115.38,124.62-48.18,125.12-115.38,125.12-115.35-50.16-115.35-125.12ZM1023.58,634.76c44.78,0,72.05-37.46,72.05-92.49s-28.22-91.51-72.05-91.51-72.02,36.51-72.02,91.51,27.25,92.49,72.02,92.49Z"/>
            <path class="cls-4" d="M1171.99,625.51l130.45-154.32c3.41-4.38,6.81-9.24,10.72-13.15h-136.31v-32.61h182.07v34.56l-129.48,152.87-11.7,14.6h144.1v32.61h-189.86v-34.56Z"/>
            <path class="cls-4" d="M1407.49,572.45v-147.01h41.87v137.77c0,45.75,15.08,71.55,56.45,71.55s61.83-31.15,61.83-82.74v-126.57h41.85v234.63h-40.87v-32.61c-11.19,25.29-39.92,39.92-73.5,39.92-58.43,0-87.63-35.06-87.63-94.94Z"/>
          </g>
          <path class="cls-4" d="M709.11,460.47h103.22v146.19c0,73.33-29.48,77.52-103.33,100.08l.12,45.18c91.54-18.68,147.59-43.9,147.59-145.25v-181.21h-147.59v35.03Z"/>
        </g>
        <g>
          <path class="cls-4" d="M458.11,460.51l.07,246.21c73.73-22.56,103.19-26.69,103.19-99.99v-146.22s-103.26,0-103.26,0Z"/>
          <path class="cls-4" d="M458.11,460.51"/>
          <path class="cls-4" d="M458.11,706.7c-73.73-22.56-103.26-26.73-103.26-100.03v-146.16h103.26v-35.07h-147.6v181.23c0,101.33,56.05,126.55,147.6,145.23l.07-44.91v-.27l-.07-.02Z"/>
        </g>
      </g>
      <g id="SPACERS" class="cls-5">
        <g class="cls-3">
          <path class="cls-1" d="M207.25,134.11v246.19c73.73-22.56,103.26-26.73,103.26-100.03v-146.16s-103.26,0-103.26,0Z"/>
          <path class="cls-1" d="M207.25,134.05"/>
          <path class="cls-1" d="M207.25,380.24c-73.73-22.56-103.26-26.73-103.26-100.03v-146.16h103.26v-35.07H59.64v181.23c0,101.33,56.05,126.55,147.6,145.23l.07-44.91v-.27l-.07-.02Z"/>
        </g>
        <g class="cls-3">
          <path class="cls-1" d="M207.25,695.2v246.19c73.73-22.56,103.26-26.73,103.26-100.03v-146.16s-103.26,0-103.26,0Z"/>
          <path class="cls-1" d="M207.25,695.15"/>
          <path class="cls-1" d="M207.25,941.34c-73.73-22.56-103.26-26.73-103.26-100.03v-146.16h103.26v-35.07H59.64v181.23c0,101.33,56.05,126.55,147.6,145.23l.07-44.91v-.27l-.07-.02Z"/>
        </g>
        <g class="cls-3">
          <path class="cls-1" d="M1757.1,134.11v246.19c73.73-22.56,103.26-26.73,103.26-100.03v-146.16s-103.26,0-103.26,0Z"/>
          <path class="cls-1" d="M1757.1,134.05"/>
          <path class="cls-1" d="M1757.1,380.24c-73.73-22.56-103.26-26.73-103.26-100.03v-146.16h103.26v-35.07h-147.6v181.23c0,101.33,56.05,126.55,147.6,145.23l.07-44.91v-.27l-.07-.02Z"/>
        </g>
        <g class="cls-3">
          <path class="cls-1" d="M1757.1,695.2v246.19c73.73-22.56,103.26-26.73,103.26-100.03v-146.16s-103.26,0-103.26,0Z"/>
          <path class="cls-1" d="M1757.1,695.15"/>
          <path class="cls-1" d="M1757.1,941.34c-73.73-22.56-103.26-26.73-103.26-100.03v-146.16h103.26v-35.07h-147.6v181.23c0,101.33,56.05,126.55,147.6,145.23l.07-44.91v-.27l-.07-.02Z"/>
        </g>
        <path class="cls-2" d="M651.56,328.1h53.07v55.97h-53.07v-55.97Z"/>
        <path class="cls-2" d="M561.48,460.47h103.22v146.19c0,73.33-29.48,77.52-103.33,100.08l.12,45.18c91.54-18.68,147.59-43.9,147.59-145.25v-181.21h-147.59v35.03Z"/>
      </g>
    </g>
  </g>
</svg>