<?xml version="1.0" encoding="UTF-8"?>
<svg xmlns="http://www.w3.org/2000/svg" version="1.1" viewBox="0 0 1920 1080">
  <defs>
    <style>
      .cls-1 {
        fill: #002b29;
      }
    </style>
  </defs>
  <!-- Generator: Adobe Illustrator 28.6.0, SVG Export Plug-In . SVG Version: 1.2.0 Build 709)  -->
  <g>
    <g id="Layer_1">
      <g id="LOGO">
        <g>
          <g>
            <path class="cls-1" d="M536.91,287.54h63.16v66.62h-63.16v-66.62Z"/>
            <path class="cls-1" d="M661.41,542.44c0-86.88,56.75-148.32,137.29-148.32s137.32,61.43,137.32,148.32-57.35,148.91-137.32,148.91-137.29-59.7-137.29-148.91ZM798.7,652.52c53.29,0,85.75-44.59,85.75-110.08s-33.59-108.91-85.75-108.91-85.72,43.46-85.72,108.91,32.43,110.08,85.72,110.08Z"/>
            <path class="cls-1" d="M975.33,641.52l155.26-183.67c4.05-5.22,8.11-11,12.76-15.65h-162.24v-38.81h216.69v41.13l-154.1,181.94-13.92,17.38h171.51v38.81h-225.96v-41.13Z"/>
            <path class="cls-1" d="M1255.62,578.36v-174.96h49.84v163.97c0,54.46,17.94,85.16,67.18,85.16s73.59-37.08,73.59-98.48v-150.64h49.81v279.26h-48.64v-38.81c-13.32,30.1-47.51,47.51-87.48,47.51-69.54,0-104.29-41.73-104.29-113Z"/>
          </g>
          <path class="cls-1" d="M424.42,445.08h122.84v173.99c0,87.27-35.09,92.26-122.98,119.11l.14,53.77c108.95-22.24,175.65-52.25,175.65-172.88v-215.67h-175.65v41.69Z"/>
        </g>
      </g>
    </g>
  </g>
</svg>